<mxfile host="app.diagrams.net" modified="2023-12-31T14:25:25.608Z" agent="Mozilla/5.0 (X11; Linux x86_64) AppleWebKit/537.36 (KHTML, like Gecko) Chrome/120.0.0.0 Safari/537.36" etag="GN5ZvF-4T66CPsZfk77B" version="22.1.16" type="device">
  <diagram name="Page-1" id="GMWNjU-q8E7-ESZ0tIa8">
    <mxGraphModel dx="1434" dy="779" grid="1" gridSize="10" guides="1" tooltips="1" connect="1" arrows="1" fold="1" page="1" pageScale="1" pageWidth="850" pageHeight="1100" math="0" shadow="0">
      <root>
        <mxCell id="0" />
        <mxCell id="1" parent="0" />
        <mxCell id="FutTYUbB200KNaRNWNv--1" value="" style="rounded=0;whiteSpace=wrap;html=1;fillColor=none;" vertex="1" parent="1">
          <mxGeometry x="70" y="20" width="780" height="630" as="geometry" />
        </mxCell>
        <mxCell id="FutTYUbB200KNaRNWNv--2" value="Client" style="shape=umlLifeline;perimeter=lifelinePerimeter;whiteSpace=wrap;html=1;container=1;dropTarget=0;collapsible=0;recursiveResize=0;outlineConnect=0;portConstraint=eastwest;newEdgeStyle={&quot;edgeStyle&quot;:&quot;elbowEdgeStyle&quot;,&quot;elbow&quot;:&quot;vertical&quot;,&quot;curved&quot;:0,&quot;rounded&quot;:0};" vertex="1" parent="1">
          <mxGeometry x="200" y="90" width="100" height="500" as="geometry" />
        </mxCell>
        <mxCell id="FutTYUbB200KNaRNWNv--3" value="Server" style="shape=umlLifeline;perimeter=lifelinePerimeter;whiteSpace=wrap;html=1;container=1;dropTarget=0;collapsible=0;recursiveResize=0;outlineConnect=0;portConstraint=eastwest;newEdgeStyle={&quot;edgeStyle&quot;:&quot;elbowEdgeStyle&quot;,&quot;elbow&quot;:&quot;vertical&quot;,&quot;curved&quot;:0,&quot;rounded&quot;:0};" vertex="1" parent="1">
          <mxGeometry x="600" y="90" width="100" height="490" as="geometry" />
        </mxCell>
        <mxCell id="FutTYUbB200KNaRNWNv--4" value="" style="html=1;points=[[0,0,0,0,5],[0,1,0,0,-5],[1,0,0,0,5],[1,1,0,0,-5]];perimeter=orthogonalPerimeter;outlineConnect=0;targetShapes=umlLifeline;portConstraint=eastwest;newEdgeStyle={&quot;curved&quot;:0,&quot;rounded&quot;:0};" vertex="1" parent="FutTYUbB200KNaRNWNv--3">
          <mxGeometry x="45" y="350" width="10" height="120" as="geometry" />
        </mxCell>
        <mxCell id="FutTYUbB200KNaRNWNv--5" value="Initiates change" style="html=1;verticalAlign=bottom;startArrow=oval;startFill=1;endArrow=block;startSize=8;curved=0;rounded=0;" edge="1" parent="1">
          <mxGeometry y="61" width="60" relative="1" as="geometry">
            <mxPoint x="246.0999999999999" y="170" as="sourcePoint" />
            <mxPoint x="246.0999999999999" y="170" as="targetPoint" />
            <mxPoint x="-60" y="-10" as="offset" />
          </mxGeometry>
        </mxCell>
        <mxCell id="FutTYUbB200KNaRNWNv--6" value="" style="html=1;verticalAlign=bottom;startArrow=oval;startFill=1;endArrow=block;startSize=8;curved=0;rounded=0;" edge="1" parent="1" target="FutTYUbB200KNaRNWNv--8">
          <mxGeometry width="60" relative="1" as="geometry">
            <mxPoint x="130" y="160" as="sourcePoint" />
            <mxPoint x="249" y="160" as="targetPoint" />
          </mxGeometry>
        </mxCell>
        <mxCell id="FutTYUbB200KNaRNWNv--7" value="User to share with&lt;br&gt;and folder to share" style="edgeLabel;html=1;align=center;verticalAlign=middle;resizable=0;points=[];" vertex="1" connectable="0" parent="FutTYUbB200KNaRNWNv--6">
          <mxGeometry x="-0.287" y="1" relative="1" as="geometry">
            <mxPoint x="11" y="15" as="offset" />
          </mxGeometry>
        </mxCell>
        <mxCell id="FutTYUbB200KNaRNWNv--8" value="" style="html=1;points=[[0,0,0,0,5],[0,1,0,0,-5],[1,0,0,0,5],[1,1,0,0,-5]];perimeter=orthogonalPerimeter;outlineConnect=0;targetShapes=umlLifeline;portConstraint=eastwest;newEdgeStyle={&quot;curved&quot;:0,&quot;rounded&quot;:0};" vertex="1" parent="1">
          <mxGeometry x="245" y="150" width="10" height="430" as="geometry" />
        </mxCell>
        <mxCell id="FutTYUbB200KNaRNWNv--9" value="User" style="shape=umlActor;verticalLabelPosition=bottom;verticalAlign=top;html=1;" vertex="1" parent="1">
          <mxGeometry x="84" y="130" width="30" height="60" as="geometry" />
        </mxCell>
        <mxCell id="FutTYUbB200KNaRNWNv--10" value="" style="endArrow=classic;html=1;rounded=0;" edge="1" parent="1">
          <mxGeometry width="50" height="50" relative="1" as="geometry">
            <mxPoint x="255" y="376" as="sourcePoint" />
            <mxPoint x="255" y="422" as="targetPoint" />
            <Array as="points">
              <mxPoint x="280" y="376" />
              <mxPoint x="280" y="392" />
              <mxPoint x="280" y="422" />
            </Array>
          </mxGeometry>
        </mxCell>
        <mxCell id="FutTYUbB200KNaRNWNv--11" value="Encrypt shared folder&lt;br&gt;symmetric key with user&#39;s&lt;br&gt;public key&lt;br&gt;and update user and&lt;br&gt;folder&#39;s metadata to add&amp;nbsp;&lt;br&gt;share" style="edgeLabel;html=1;align=center;verticalAlign=middle;resizable=0;points=[];" vertex="1" connectable="0" parent="FutTYUbB200KNaRNWNv--10">
          <mxGeometry x="-0.0183" y="1" relative="1" as="geometry">
            <mxPoint x="65" y="4" as="offset" />
          </mxGeometry>
        </mxCell>
        <mxCell id="FutTYUbB200KNaRNWNv--12" value="&lt;font style=&quot;font-size: 20px;&quot;&gt;&lt;b&gt;Create share&lt;/b&gt;&lt;/font&gt;" style="text;html=1;strokeColor=none;fillColor=none;align=center;verticalAlign=middle;whiteSpace=wrap;rounded=0;" vertex="1" parent="1">
          <mxGeometry x="50" y="20" width="190" height="30" as="geometry" />
        </mxCell>
        <mxCell id="FutTYUbB200KNaRNWNv--13" value="" style="endArrow=classic;html=1;rounded=0;" edge="1" parent="1">
          <mxGeometry width="50" height="50" relative="1" as="geometry">
            <mxPoint x="255" y="233" as="sourcePoint" />
            <mxPoint x="255" y="279" as="targetPoint" />
            <Array as="points">
              <mxPoint x="280" y="233" />
              <mxPoint x="280" y="249" />
              <mxPoint x="280" y="279" />
            </Array>
          </mxGeometry>
        </mxCell>
        <mxCell id="FutTYUbB200KNaRNWNv--14" value="Decrypt shared folder&lt;br&gt;symmetric key" style="edgeLabel;html=1;align=center;verticalAlign=middle;resizable=0;points=[];" vertex="1" connectable="0" parent="FutTYUbB200KNaRNWNv--13">
          <mxGeometry x="-0.0183" y="1" relative="1" as="geometry">
            <mxPoint x="59" y="-1" as="offset" />
          </mxGeometry>
        </mxCell>
        <mxCell id="FutTYUbB200KNaRNWNv--15" value="" style="endArrow=classic;html=1;rounded=0;" edge="1" parent="1">
          <mxGeometry width="50" height="50" relative="1" as="geometry">
            <mxPoint x="255" y="165" as="sourcePoint" />
            <mxPoint x="255" y="211" as="targetPoint" />
            <Array as="points">
              <mxPoint x="280" y="165" />
              <mxPoint x="280" y="181" />
              <mxPoint x="280" y="211" />
            </Array>
          </mxGeometry>
        </mxCell>
        <mxCell id="FutTYUbB200KNaRNWNv--16" value="Verify that folder exists" style="edgeLabel;html=1;align=center;verticalAlign=middle;resizable=0;points=[];" vertex="1" connectable="0" parent="FutTYUbB200KNaRNWNv--15">
          <mxGeometry x="-0.0183" y="1" relative="1" as="geometry">
            <mxPoint x="49" y="-1" as="offset" />
          </mxGeometry>
        </mxCell>
        <mxCell id="FutTYUbB200KNaRNWNv--17" value="" style="endArrow=classic;html=1;rounded=0;" edge="1" parent="1">
          <mxGeometry width="50" height="50" relative="1" as="geometry">
            <mxPoint x="255" y="297" as="sourcePoint" />
            <mxPoint x="255" y="343" as="targetPoint" />
            <Array as="points">
              <mxPoint x="280" y="297" />
              <mxPoint x="280" y="313" />
              <mxPoint x="280" y="343" />
            </Array>
          </mxGeometry>
        </mxCell>
        <mxCell id="FutTYUbB200KNaRNWNv--18" value="&lt;div&gt;Retrieve target user&#39;s&lt;/div&gt;&lt;div&gt;public key&lt;/div&gt;" style="edgeLabel;html=1;align=center;verticalAlign=middle;resizable=0;points=[];" vertex="1" connectable="0" parent="FutTYUbB200KNaRNWNv--17">
          <mxGeometry x="-0.0183" y="1" relative="1" as="geometry">
            <mxPoint x="62" y="-1" as="offset" />
          </mxGeometry>
        </mxCell>
        <mxCell id="FutTYUbB200KNaRNWNv--19" value="" style="endArrow=classic;html=1;rounded=0;" edge="1" parent="1">
          <mxGeometry width="50" height="50" relative="1" as="geometry">
            <mxPoint x="255" y="474" as="sourcePoint" />
            <mxPoint x="645" y="474" as="targetPoint" />
          </mxGeometry>
        </mxCell>
        <mxCell id="FutTYUbB200KNaRNWNv--20" value="Send user&#39;s metadata and folder&#39;s metadata" style="edgeLabel;html=1;align=center;verticalAlign=middle;resizable=0;points=[];" vertex="1" connectable="0" parent="FutTYUbB200KNaRNWNv--19">
          <mxGeometry x="-0.4256" y="-1" relative="1" as="geometry">
            <mxPoint x="80" y="-13" as="offset" />
          </mxGeometry>
        </mxCell>
        <mxCell id="FutTYUbB200KNaRNWNv--21" value="" style="endArrow=classic;html=1;rounded=0;" edge="1" parent="1">
          <mxGeometry width="50" height="50" relative="1" as="geometry">
            <mxPoint x="655" y="482" as="sourcePoint" />
            <mxPoint x="655" y="528" as="targetPoint" />
            <Array as="points">
              <mxPoint x="680" y="482" />
              <mxPoint x="680" y="498" />
              <mxPoint x="680" y="528" />
            </Array>
          </mxGeometry>
        </mxCell>
        <mxCell id="FutTYUbB200KNaRNWNv--22" value="Update user&#39;s metadata&lt;br&gt;and folder&#39;s metadata" style="edgeLabel;html=1;align=center;verticalAlign=middle;resizable=0;points=[];" vertex="1" connectable="0" parent="FutTYUbB200KNaRNWNv--21">
          <mxGeometry x="-0.0183" y="1" relative="1" as="geometry">
            <mxPoint x="59" y="2" as="offset" />
          </mxGeometry>
        </mxCell>
        <mxCell id="FutTYUbB200KNaRNWNv--23" value="" style="endArrow=none;html=1;rounded=0;endFill=0;startArrow=classic;startFill=1;" edge="1" parent="1">
          <mxGeometry width="50" height="50" relative="1" as="geometry">
            <mxPoint x="255" y="550" as="sourcePoint" />
            <mxPoint x="645" y="550" as="targetPoint" />
          </mxGeometry>
        </mxCell>
        <mxCell id="FutTYUbB200KNaRNWNv--24" value="Share creation successful" style="edgeLabel;html=1;align=center;verticalAlign=middle;resizable=0;points=[];" vertex="1" connectable="0" parent="FutTYUbB200KNaRNWNv--23">
          <mxGeometry x="-0.4256" y="-1" relative="1" as="geometry">
            <mxPoint x="80" y="-13" as="offset" />
          </mxGeometry>
        </mxCell>
      </root>
    </mxGraphModel>
  </diagram>
</mxfile>
